<svg xmlns="http://www.w3.org/2000/svg" viewBox="0 0 471.7 471.7"><path d="M360.8 200.6v-74.7c.2-33.8-13.3-66.3-37.4-90C300.1 12.7 269.6 0 237.3 0h-1.6c-68.9.1-124.9 56.5-124.9 125.9v74.7c-26 3.1-45 24.9-45 51.3v167.8c0 28.5 22.8 52 51.3 52h237.5c28.5 0 51.3-23.5 51.3-52V251.9c-.1-26.3-19.1-48.2-45.1-51.3zm-230.1-74.7h.1c0-58.4 47.1-106.2 105-106.2h.1c27.5-.1 53.9 10.8 73.4 30.2 20.3 20.1 31.6 47.5 31.4 76v74.8h-22v-74.8c.2-22.7-8.8-44.5-24.9-60.5-15.2-15.2-35.8-23.8-57.3-23.8h-.6c-46 0-83.2 37.8-83.2 84.2v74.9h-22v-74.8zm168.1 0v74.8h-126v-74.8c0-35.4 28.2-64.2 63.2-64.2h.6c16.2 0 31.8 6.5 43.3 18 12.2 12.2 19.1 28.9 18.9 46.2zm88 294.1c0 17.5-14.2 31.7-31.7 31.7H117.5c-17.5 0-31.7-14.2-31.7-31.7V252.4c0-17.5 14.2-31.7 31.7-31.7h237.6c17.5 0 31.7 14.2 31.7 31.7V420z"/><path d="M270.4 330c-4.4-15.5-18.5-26.1-34.6-26.1-19.9 0-36.1 16.1-36.1 36.1 0 16.1 10.6 30.2 26.1 34.6v28c0 5.5 4.5 10 10 10s10-4.5 10-10v-28c19.1-5.5 30.2-25.5 24.6-44.6zm-34.6 26c-8.9 0-16.1-7.2-16.1-16.1 0-8.9 7.2-16.1 16.1-16.1 8.9 0 16.1 7.2 16.1 16.1 0 8.9-7.2 16.1-16.1 16.1z"/></svg>